<svg width="29" height="28" viewBox="0 0 29 28" fill="none" xmlns="http://www.w3.org/2000/svg">
<rect x="0.5" width="28" height="28" rx="8" fill="url(#paint0_linear_4754_41391)"/>
<path d="M13.645 24.513C12.8097 24.2144 12.6305 23.8084 12.288 21.4293C11.8894 18.6638 11.8026 16.9521 12.0332 16.4098C12.3393 15.6912 13.17 15.2833 14.332 15.2786C15.4846 15.274 16.3228 15.6856 16.6308 16.4098C16.8622 16.9512 16.7754 18.6638 16.3769 21.4293C16.1062 23.3613 15.9569 23.8494 15.5836 24.178C15.0702 24.6325 14.3422 24.7585 13.6516 24.514L13.645 24.513ZM10.0769 21.6757C7.1929 20.257 5.3449 17.8565 4.6729 14.6626C4.5049 13.8385 4.4769 11.872 4.63557 11.116C5.05557 9.08597 5.85824 7.49837 7.1929 6.09464C9.11557 4.06744 11.5889 2.99597 14.3422 2.99597C17.0676 2.99597 19.5316 4.04784 21.4076 6.01437C22.8356 7.49837 23.6382 9.06917 24.0489 11.1384C24.1889 11.8272 24.1889 13.705 24.0582 14.4797C23.6289 16.9288 22.2662 19.1594 20.2782 20.6584C19.5689 21.1941 17.8329 22.1293 17.5529 22.1293C17.4502 22.1293 17.4409 22.0229 17.4876 21.5926C17.5716 20.902 17.6556 20.7582 18.0476 20.594C18.6729 20.3326 19.7369 19.5748 20.3902 18.9196C21.5196 17.7996 22.3502 16.3342 22.7329 14.7942C22.9756 13.8329 22.9476 11.6956 22.6769 10.7062C21.8276 7.5609 19.2609 5.11557 16.1156 4.46224C15.2009 4.27557 13.5396 4.27557 12.6156 4.46224C9.4329 5.11557 6.8009 7.68224 5.99824 10.9116C5.78357 11.7889 5.78357 13.9262 5.99824 14.8036C6.53024 16.9409 7.91157 18.9009 9.72224 20.0676C10.0769 20.3009 10.5062 20.5436 10.6836 20.6182C11.0756 20.7862 11.1596 20.9262 11.2342 21.6169C11.2809 22.0369 11.2716 22.1582 11.1689 22.1582C11.1036 22.1582 10.6276 21.9529 10.1236 21.7102L10.0769 21.6757ZM10.1142 17.8789C9.14357 17.1042 8.2849 15.7304 7.93024 14.3826C7.71557 13.5688 7.71557 12.0213 7.93957 11.2093C8.52757 9.01784 10.1422 7.31917 12.3822 6.52117C13.1476 6.2505 14.8462 6.18984 15.7889 6.39797C19.0369 7.1213 21.3422 10.374 20.8942 13.6005C20.7169 14.9006 20.2689 15.9684 19.4756 16.9605C19.0836 17.4617 18.1316 18.3026 17.9636 18.3026C17.9356 18.3026 17.9076 17.9853 17.9076 17.5989V16.8933L18.3929 16.3146C20.2222 14.1232 20.0916 11.0618 18.0942 9.0533C17.3196 8.27117 16.4236 7.81197 15.2662 7.6001C14.5196 7.46197 14.3609 7.46197 13.5769 7.59077C12.3869 7.7849 11.4648 8.24597 10.6462 9.0561C8.63957 11.0441 8.5089 14.1213 10.3382 16.3146L10.8198 16.8933V17.6026C10.8198 17.9946 10.789 18.312 10.7508 18.312C10.7134 18.312 10.4428 18.1253 10.1534 17.892L10.1142 17.8789ZM13.3529 14.0681C12.5222 13.6817 12.0742 12.9528 12.0649 12.0026C12.0649 11.1486 12.5409 10.4038 13.3622 9.96797C13.8849 9.69357 14.8089 9.69357 15.3316 9.96984C15.9009 10.2657 16.3676 10.8397 16.5449 11.4389C17.0862 13.2794 15.1356 14.8922 13.3716 14.0681H13.3529Z" fill="white"/>
<path d="M14.4896 14.4302C15.7752 14.4302 16.8173 13.3881 16.8173 12.1025C16.8173 10.8169 15.7752 9.77478 14.4896 9.77478C13.204 9.77478 12.1619 10.8169 12.1619 12.1025C12.1619 13.3881 13.204 14.4302 14.4896 14.4302Z" fill="white"/>
<path d="M14.7128 15.3319C14.8743 15.3534 15.1953 15.3954 15.4921 15.4906C15.7908 15.5839 16.0615 15.7304 16.2724 15.8807C16.4777 16.03 16.6271 16.185 16.7204 16.3735C16.8137 16.562 16.8604 16.786 16.8884 17.1528C16.9071 17.5206 16.9071 18.0302 16.8231 18.9822C16.7391 19.9314 16.5711 21.323 16.4404 22.2143C16.3097 23.1103 16.2164 23.5023 16.0951 23.7916C15.9737 24.0903 15.8151 24.2863 15.6377 24.4263C15.4604 24.5663 15.2551 24.6503 15.0591 24.697C14.8631 24.7436 14.6857 24.7436 14.5177 24.7436C14.3497 24.7436 14.1911 24.7436 13.9764 24.697C13.7617 24.6503 13.4817 24.5663 13.2764 24.3983C13.0617 24.2303 12.9217 23.9876 12.8097 23.6703C12.6977 23.353 12.6137 22.9703 12.5017 22.205C12.3897 21.4396 12.2404 20.301 12.1471 19.433C12.0537 18.565 12.0164 17.9676 12.0089 17.5663C11.9996 17.165 12.0183 16.9662 12.0649 16.773C12.1116 16.5863 12.1863 16.409 12.2889 16.2596C12.3916 16.1103 12.526 15.9796 12.6623 15.877C12.7957 15.7743 12.9329 15.6996 13.0972 15.6418C13.2596 15.5764 13.4547 15.5204 13.6945 15.4738C13.9372 15.4271 14.2172 15.3804 14.3609 15.3618C14.5047 15.3403 14.5047 15.3403 14.6652 15.3618L14.7128 15.3319Z" fill="white"/>
<defs>
<linearGradient id="paint0_linear_4754_41391" x1="14.4711" y1="28.3556" x2="14.234" y2="-1.31251e-06" gradientUnits="userSpaceOnUse">
<stop stop-color="#822CBE"/>
<stop offset="1" stop-color="#D772FB"/>
</linearGradient>
</defs>
</svg>
