<svg width="29" height="28" viewBox="0 0 29 28" fill="none" xmlns="http://www.w3.org/2000/svg">
<g clip-path="url(#clip0_4754_41399)">
<path d="M4 13.0454V14.9546C4 15.9211 3.21649 16.7046 2.25 16.7046C1.28351 16.7046 0.5 15.9211 0.5 14.9546V13.0454C0.5 12.0789 1.28351 11.2954 2.25 11.2954C3.21649 11.2954 4 12.0789 4 13.0454Z" fill="#0066D9"/>
<path d="M25.0007 13.0952C25.0002 13.0786 25 13.062 25 13.0454C25 12.0789 25.7835 11.2954 26.75 11.2954C27.7165 11.2954 28.5 12.0789 28.5 13.0454C28.5 13.0621 28.4998 13.0787 28.4993 13.0952H28.5V15.0043H28.4993C28.473 15.9478 27.6999 16.7046 26.75 16.7046C25.8001 16.7046 25.027 15.9478 25.0007 15.0043H25V13.0951H25.0007V13.0952Z" fill="#4285F4"/>
<path d="M10.0454 18.7727V20.6818C10.0454 21.6483 9.26196 22.4318 8.29541 22.4318C7.32886 22.4318 6.54541 21.6483 6.54541 20.6818V18.7726C6.54541 17.8062 7.32892 17.0226 8.29541 17.0226C9.2619 17.0226 10.0454 17.8062 10.0454 18.7726V18.7727ZM10.0454 7.31811V13.5624H10.045C10.0239 14.5106 9.24861 15.2727 8.29541 15.2727C7.34221 15.2727 6.56701 14.5106 6.5459 13.5624H6.54541V7.31811C6.54541 6.35162 7.32892 5.56812 8.29541 5.56812C9.2619 5.56812 10.0454 6.35162 10.0454 7.31811V7.31811Z" fill="#EA4335"/>
<path d="M18.9546 9.22722C18.9546 10.1937 19.738 10.9772 20.7046 10.9772C21.6711 10.9772 22.4546 10.1937 22.4546 9.22722V7.31813C22.4546 6.35163 21.6711 5.56812 20.7046 5.56812C19.7381 5.56812 18.9546 6.35163 18.9546 7.31813V9.22722Z" fill="#34A853"/>
<path d="M12.75 3.65914C12.75 4.62558 13.5335 5.40914 14.5 5.40914C15.4665 5.40914 16.25 4.62558 16.25 3.65914V1.75C16.25 0.783508 15.4665 0 14.5 0C13.5335 0 12.75 0.783508 12.75 1.75V3.65914ZM12.75 24.3409C12.75 23.3744 13.5335 22.5909 14.5 22.5909C15.4665 22.5909 16.25 23.3744 16.25 24.3409V26.25C16.25 27.2165 15.4665 28 14.5 28C13.5335 28 12.75 27.2165 12.75 26.25V24.3409Z" fill="#FAB908"/>
<path d="M18.9546 14.4773C18.9546 13.5108 19.738 12.7273 20.7046 12.7273C21.6711 12.7273 22.4546 13.5108 22.4546 14.4773V20.6819C22.4546 21.6484 21.6711 22.4319 20.7046 22.4319C19.7381 22.4319 18.9546 21.6484 18.9546 20.6819V14.4773Z" fill="#34A853"/>
<path d="M16.25 8.90918V19.0909C16.25 20.0574 15.4665 20.8409 14.5 20.8409C13.5335 20.8409 12.75 20.0574 12.75 19.0909V8.90918C12.75 7.94263 13.5335 7.15918 14.5 7.15918C15.4665 7.15918 16.25 7.94263 16.25 8.90918Z" fill="#FAB908"/>
</g>
<defs>
<clipPath id="clip0_4754_41399">
<rect width="28" height="28" fill="white" transform="translate(0.5)"/>
</clipPath>
</defs>
</svg>
