<svg width="29" height="28" viewBox="0 0 29 28" fill="none" xmlns="http://www.w3.org/2000/svg">
<g clip-path="url(#clip0_4754_41385)">
<path d="M14.4994 0.0461426C6.79124 0.0461426 0.542236 6.29497 0.542236 14.0031C0.542236 21.7116 6.79124 27.96 14.4994 27.96C22.2084 27.96 28.4567 21.7116 28.4567 14.0031C28.4567 6.29547 22.2084 0.0468092 14.4992 0.0468092L14.4994 0.0461426V0.0461426ZM20.9001 20.1761C20.6501 20.5861 20.1134 20.7161 19.7034 20.4645C16.4264 18.4628 12.3011 18.0095 7.44274 19.1195C6.97457 19.2261 6.50791 18.9328 6.40124 18.4645C6.29407 17.9961 6.58624 17.5295 7.05557 17.4228C12.3722 16.2076 16.9327 16.7311 20.6117 18.9795C21.0217 19.2311 21.1517 19.7661 20.9001 20.1761V20.1761ZM22.6084 16.3753C22.2934 16.8878 21.6234 17.0495 21.1117 16.7345C17.3601 14.428 11.6412 13.7601 7.20374 15.1071C6.62824 15.281 6.02041 14.9566 5.84574 14.3821C5.67241 13.8066 5.99691 13.2 6.57141 13.025C11.6402 11.487 17.9417 12.232 22.2501 14.8795C22.7617 15.1945 22.9234 15.8645 22.6084 16.3755V16.3753ZM22.7551 12.418C18.2567 9.74614 10.8351 9.50047 6.54024 10.804C5.85057 11.0131 5.12124 10.6238 4.91224 9.93414C4.70324 9.24414 5.09224 8.51531 5.78241 8.30564C10.7126 6.80897 18.9084 7.09814 24.0874 10.1726C24.7091 10.5408 24.9124 11.342 24.5441 11.9615C24.1774 12.5818 23.3741 12.7863 22.7557 12.418H22.7551Z" fill="#1ED760"/>
</g>
<defs>
<clipPath id="clip0_4754_41385">
<rect width="28" height="28" fill="white" transform="translate(0.5)"/>
</clipPath>
</defs>
</svg>
