<svg width="1600" height="1200" viewBox="0 0 1600 1200" fill="none"
    xmlns="http://www.w3.org/2000/svg">
    <g clip-path="url(#clip0_164_980)">
        <path fill-rule="evenodd" clip-rule="evenodd"
            d="M288.034 88.4932L234.311 34.77L233.604 35.4771L286.62 88.4932H79.9995L79.4224 89.3099L79.9995 89.7176L79.9994 263.613L75.3718 261.455L74.9492 262.362L79.9994 264.717V433.206L20.723 419.521L20.498 420.496L79.9994 434.233V599.795H-100V600.795H79.9994V765.654L20.274 779.443L20.4989 780.417L79.9994 766.681V935.093L74.5288 937.644L74.9514 938.551L79.9994 936.197L79.9994 1111.45L79.4224 1111.86L79.9995 1112.67L80.2552 1112.49H80.9994V1111.97L204.811 1024.49H375.025L336.025 1063.49H149.677L148.266 1064.49H335.025L163.134 1236.38L163.841 1237.09L336.439 1064.49H582.883L419.041 1415.85L419.947 1416.28L583.986 1064.49H799V1400.45H800V1064.49L1016.01 1064.49L1180.05 1416.28L1180.95 1415.85L1017.11 1064.49H1262.62L1364.97 1166.85L1365.68 1166.14L1264.03 1064.49H1451.8L1519 1111.97V1112.49H1519.74L1520 1112.67L1520.58 1111.86L1520 1111.45V936.199L1525.04 938.551L1525.46 937.645L1520 935.096V766.683L1579.49 780.417L1579.72 779.443L1520 765.657V600.795H1700V599.795H1520V434.23L1579.49 420.496L1579.27 419.521L1520 433.204V264.714L1525.04 262.362L1524.62 261.455L1520 263.61V89.7175L1520.58 89.3099L1520 88.4932H1312.44L1436.63 -35.7003L1435.93 -36.4074L1311.03 88.4932H1039.1L1180.66 -215.077L1179.75 -215.5L1038 88.4932H800V-199.545H799V88.4932H561.994L420.24 -215.5L419.333 -215.077L560.891 88.4932H288.034ZM656.017 292.493L647.157 273.493H473.034L492.034 292.493L656.017 292.493ZM490.62 292.493L471.62 273.493H341.851L368.744 292.493H490.62ZM340.435 272.493H470.62L443.62 245.493L302.219 245.493L340.435 272.493ZM300.804 244.493L442.62 244.493L411.62 213.493L256.926 213.493L300.804 244.493ZM255.511 212.493L410.62 212.493L375.62 177.493L205.971 177.493L255.511 212.493ZM204.556 176.493L374.62 176.493L335.62 137.493L149.355 137.493L204.556 176.493ZM147.939 136.493L334.62 136.493L287.62 89.4932L81.4149 89.4932L147.939 136.493ZM289.034 89.4932L336.034 136.493H583.273L561.357 89.4932H289.034ZM562.46 89.4932L584.377 136.493L799 136.493V89.4932L562.46 89.4932ZM800 89.4932V136.493L1015.62 136.493L1037.53 89.4933L800 89.4932ZM1038.64 89.4933L1016.72 136.493H1263.03L1310.03 89.4933H1038.64ZM1311.44 89.4933L1264.44 136.493L1452.06 136.493L1518.58 89.4933L1311.44 89.4933ZM1450.64 137.493L1263.44 137.493L1224.44 176.493L1395.44 176.493L1450.64 137.493ZM1394.03 177.493L1223.44 177.493L1188.44 212.493L1344.49 212.493L1394.03 177.493ZM1343.07 213.493L1187.44 213.493L1156.44 244.493L1299.19 244.493L1343.07 213.493ZM1297.78 245.493L1155.44 245.493L1128.44 272.493H1259.56L1297.78 245.493ZM1258.15 273.493H1127.44L1108.44 292.493L1231.26 292.493L1258.15 273.493ZM1107.03 292.493L1126.03 273.493H952.836L943.976 292.493L1107.03 292.493ZM942.873 292.493L951.733 273.493H800V292.493H942.873ZM799 292.493V273.493H648.261L657.121 292.493H799ZM1451.01 138.462V295.783L1396.01 321.429V177.319L1451.01 138.462ZM1395.01 178.025L1344.56 213.666V345.419L1395.01 321.895V178.025ZM1343.56 214.373L1299.57 245.451V366.397L1343.56 345.885V214.373ZM1298.57 246.158L1260.01 273.404V384.846L1298.57 366.864V246.158ZM1259.01 274.11L1232 293.192V397.907L1259.01 385.313V274.11ZM1232 399.01V499.694L1259.01 493.459V386.416L1232 399.01ZM1232 500.72V599.795H1259.01V494.485L1232 500.72ZM1232 600.795V699.166L1259.01 705.402V600.795H1232ZM1232 700.193V800.8L1259.01 813.394V706.428L1232 700.193ZM1232 801.903V907.975L1259.01 927.057V814.497L1232 801.903ZM1260.01 927.763L1298.57 955.009V832.946L1260.01 814.964V927.763ZM1297.52 955.493L1259.31 928.493H1128.03L1155.03 955.493H1297.52ZM1257.89 927.493L1231 908.493H1108.03L1127.03 927.493H1257.89ZM1106.62 908.493L1125.62 927.493H953.226L944.366 908.493H1106.62ZM943.263 908.493L952.123 927.493H800V908.493H943.263ZM799 908.493V927.493H647.871L656.73 908.493H799ZM655.627 908.493L646.767 927.493H473.439L492.439 908.493H655.627ZM491.025 908.493L472.025 927.493H342.107L368.999 908.493H491.025ZM340.691 928.493L302.475 955.493H444.025L471.025 928.493H340.691ZM301.06 956.493L257.182 987.493H412.025L443.025 956.493H301.06ZM255.766 988.493L206.227 1023.49H376.025L411.025 988.493H255.766ZM1298.94 956.493L1342.82 987.493H1187.03L1156.03 956.493H1298.94ZM1343.56 986.794L1299.57 955.716V833.413L1343.56 853.925V986.794ZM1344.23 988.493H1188.03L1223.03 1023.49H1393.77L1344.23 988.493ZM1395.01 1023.14L1344.56 987.501V854.391L1395.01 877.915V1023.14ZM1395.19 1024.49H1224.03L1263.03 1063.49H1450.39L1395.19 1024.49ZM1451.01 1062.71L1396.01 1023.85V878.381L1451.01 904.027V1062.71ZM1452.01 1063.41L1519 1110.74V935.733L1452.01 904.494V1063.41ZM1519 934.63V766.452L1452.01 750.985V903.39L1519 934.63ZM1519 765.426V600.795H1452.01V749.959L1519 765.426ZM1519 599.795V434.461L1452.01 449.928V599.795H1519ZM1519 433.435V265.18L1452.01 296.42V448.902L1519 433.435ZM1519 264.077L1452.01 295.316V137.755L1519 90.424V264.077ZM80.9994 935.73L80.9994 1110.74L147.996 1063.41V904.489L80.9994 935.73ZM148.996 1062.7L204 1023.84V878.374L148.996 904.023V1062.7ZM205 1023.14L255.446 987.495V854.384L205 877.908V1023.14ZM256.446 986.788L300.435 955.71V833.406L256.446 853.918V986.788ZM301.435 955.003L340 927.757V814.957L301.435 832.939V955.003ZM341 927.051L367.999 907.975L367.999 801.9L341 814.49V927.051ZM368.999 293.493L1231 293.493V907.493H368.999L368.999 293.493ZM367.999 397.91V293.192L341 274.116V385.32L367.999 397.91ZM340 273.41L301.435 246.164V366.87L340 384.853V273.41ZM300.435 245.457L256.446 214.379V345.892L300.435 366.404V245.457ZM255.446 213.672L205 178.031V321.902L255.446 345.425V213.672ZM204 177.325V321.435L148.996 295.787V138.464L204 177.325ZM367.999 399.013L341 386.423V493.463L367.999 499.696V399.013ZM367.999 500.723L341 494.489V599.795H367.999V500.723ZM367.999 600.795H341V705.398L367.999 699.164V600.795ZM367.999 700.191L341 706.424V813.387L367.999 800.797V700.191ZM80.9994 934.627L147.996 903.386L147.996 750.982L80.9994 766.45V934.627ZM80.9994 765.423L147.996 749.956V600.795H80.9994V765.423ZM80.9994 599.795H147.996V449.931L80.9994 434.463V599.795ZM80.9994 433.437L147.996 448.905L147.996 296.424L80.9994 265.183V433.437ZM80.9994 264.08L147.996 295.321V137.758L80.9995 90.4241L80.9994 264.08ZM799 272.493H647.794L635.204 245.493L799 245.493V272.493ZM634.101 245.493L646.691 272.493H472.034L445.034 245.493H634.101ZM633.635 244.493H444.034L413.034 213.493H619.179L633.635 244.493ZM618.713 212.493H412.034L377.034 177.493H602.392L618.713 212.493ZM601.926 176.493H376.034L337.034 137.493H583.74L601.926 176.493ZM799 137.493L584.843 137.493L603.029 176.493L799 176.493V137.493ZM799 177.493L603.495 177.493L619.816 212.493L799 212.493V177.493ZM799 213.493L620.282 213.493L634.738 244.493L799 244.493V213.493ZM800 272.493V245.493L964.789 245.493L952.199 272.493H800ZM800 244.493L965.255 244.493L979.711 213.493L800 213.493V244.493ZM953.302 272.493L965.892 245.493H1154.03L1127.03 272.493H953.302ZM966.359 244.493H1155.03L1186.03 213.493H980.814L966.359 244.493ZM1222.03 177.493L1187.03 212.493H981.281L997.601 177.493H1222.03ZM996.498 177.493L980.177 212.493L800 212.493V177.493L996.498 177.493ZM996.964 176.493L800 176.493V137.493L1015.15 137.493L996.964 176.493ZM998.068 176.493L1016.25 137.493H1262.03L1223.03 176.493H998.068ZM1396.01 322.532L1451.01 296.886V449.132L1396.01 461.83V322.532ZM1396.01 462.856L1451.01 450.159V599.795H1396.01V462.856ZM1396.01 600.795H1451.01V749.728L1396.01 737.031V600.795ZM1396.01 738.057L1451.01 750.754V902.924L1396.01 877.278V738.057ZM1222.62 1024.49L1261.62 1063.49H1016.64L998.458 1024.49H1222.62ZM997.354 1024.49L1015.54 1063.49L800 1063.49V1024.49L997.354 1024.49ZM799 1024.49V1063.49H584.453L602.639 1024.49H799ZM601.535 1024.49L583.349 1063.49H337.439L376.439 1024.49H601.535ZM602.002 1023.49H377.439L412.439 988.493H618.323L602.002 1023.49ZM618.789 987.493H413.439L444.439 956.493H633.244L618.789 987.493ZM633.711 955.493H445.439L472.439 928.493H646.301L633.711 955.493ZM634.814 955.493L647.404 928.493H799V955.493H634.814ZM800 955.493V928.493H952.589L965.179 955.493L800 955.493ZM966.282 955.493L953.692 928.493H1126.62L1153.62 955.493H966.282ZM966.749 956.493H1154.62L1185.62 987.493H981.204L966.749 956.493ZM981.671 988.493H1186.62L1221.62 1023.49H997.991L981.671 988.493ZM1395.01 737.826V876.812L1344.56 853.288V726.18L1395.01 737.826ZM1343.56 725.949V852.822L1299.57 832.309V715.793L1343.56 725.949ZM1298.57 715.562V831.843L1260.01 813.86V706.659L1298.57 715.562ZM1298.57 714.536L1260.01 705.633V600.795H1298.57V714.536ZM1298.57 599.795H1260.01V494.254L1298.57 485.351V599.795ZM1298.57 484.325L1260.01 493.228V385.95L1298.57 367.967V484.325ZM1299.57 484.094V367.501L1343.56 346.988V473.938L1299.57 484.094ZM1344.56 473.707V346.522L1395.01 322.998V462.061L1344.56 473.707ZM1344.56 474.733L1395.01 463.087V599.795H1344.56V474.733ZM1344.56 600.795H1395.01V736.8L1344.56 725.153V600.795ZM1343.56 600.795V724.922L1299.57 714.767V600.795H1343.56ZM1343.56 599.795H1299.57V485.12L1343.56 474.964V599.795ZM980.567 988.493L996.888 1023.49L800 1023.49V988.493L980.567 988.493ZM799 988.493V1023.49H603.105L619.426 988.493H799ZM799 987.493H619.892L634.348 956.493H799V987.493ZM800 987.493V956.493L965.646 956.493L980.101 987.493L800 987.493ZM148.996 449.135L148.996 296.89L204 322.539V461.834L148.996 449.135ZM205 462.065V323.005L255.446 346.529L255.446 473.711L205 462.065ZM256.446 473.942L256.446 346.995L300.435 367.508V484.098L256.446 473.942ZM301.435 484.329V367.974L340 385.957V493.232L301.435 484.329ZM301.435 485.355L340 494.258V599.795H301.435V485.355ZM301.435 600.795H340V705.629L301.435 714.532V600.795ZM301.435 715.558L340 706.655V813.853L301.435 831.836V715.558ZM300.435 715.789V832.302L256.446 852.815L256.446 725.945L300.435 715.789ZM255.446 726.175L255.446 853.281L205 876.805V737.822L255.446 726.175ZM204 738.053V877.271L148.996 902.92L148.996 750.751L204 738.053ZM204 737.027L148.996 749.725V600.795H204V737.027ZM204 599.795H148.996V450.162L204 462.86V599.795ZM205 599.795V463.091L255.446 474.738V599.795H205ZM256.446 599.795V474.969L300.435 485.124V599.795H256.446ZM256.446 600.795H300.435V714.763L256.446 724.918V600.795ZM255.446 600.795V725.149L205 736.796V600.795H255.446Z"
            fill="#2C2D32" />
        <g opacity="0.7" filter="url(#filter0_f_164_980)">
            <path d="M255.914 474.261V600.493H301.109V484.78L255.914 474.261Z"
                fill="url(#paint0_linear_164_980)" />
        </g>
        <g opacity="0.7" filter="url(#filter1_f_164_980)">
            <path d="M204.157 737.37V877.768L255.761 853.4L255.98 725.434L204.157 737.37Z"
                fill="url(#paint1_linear_164_980)" />
        </g>
        <g opacity="0.7" filter="url(#filter2_f_164_980)">
            <path d="M1127.48 273.046H952.711L965.918 244.793L1155.74 244.793L1127.48 273.046Z"
                fill="url(#paint2_linear_164_980)" />
        </g>
        <g opacity="0.7" filter="url(#filter3_f_164_980)">
            <path d="M1299.03 367.45V245.006L1343.95 213.408V346.276L1299.03 367.45Z"
                fill="url(#paint3_linear_164_980)" />
        </g>
        <g opacity="0.7" filter="url(#filter4_f_164_980)">
            <path d="M443.953 956.058L472.375 927.843H646.643L633.988 956.058H443.953Z"
                fill="url(#paint4_linear_164_980)" />
        </g>
        <g opacity="0.7" filter="url(#filter5_f_164_980)">
            <path d="M1222.92 1024.49H997.766L980.769 987.86H1186.6L1222.92 1024.49Z"
                fill="url(#paint5_linear_164_980)" />
        </g>
        <g opacity="0.7" filter="url(#filter6_f_164_980)">
            <path d="M411.973 213.114L375.43 176.817L602.55 176.799L619.569 213.114H411.973Z"
                fill="url(#paint6_linear_164_980)" />
        </g>
        <g opacity="0.7" filter="url(#filter7_f_164_980)">
            <path d="M1395.41 877.585V737.49L1451.5 750.363V903.85L1395.41 877.585Z"
                fill="url(#paint7_linear_164_980)" />
        </g>
        <line x1="1258.93" y1="494.262" x2="1517.47" y2="434.541"
            stroke="url(#paint8_linear_164_980)" />
        <line x1="1126.47" y1="927.73" x2="1246.23" y2="1047.47"
            stroke="url(#paint9_linear_164_980)" />
        <line x1="358.884" y1="159.819" x2="472.276" y2="273.48"
            stroke="url(#paint10_linear_164_980)" />
        <line x1="82.3077" y1="766.027" x2="340.916" y2="706.174"
            stroke="url(#paint11_linear_164_980)" />
    </g>
    <defs>
        <filter id="filter0_f_164_980" x="253.914" y="472.261" width="49.1947" height="130.232"
            filterUnits="userSpaceOnUse" color-interpolation-filters="sRGB">
            <feFlood flood-opacity="0" result="BackgroundImageFix" />
            <feBlend mode="normal" in="SourceGraphic" in2="BackgroundImageFix" result="shape" />
            <feGaussianBlur stdDeviation="1" result="effect1_foregroundBlur_164_980" />
        </filter>
        <filter id="filter1_f_164_980" x="202.157" y="723.434" width="55.8237" height="156.334"
            filterUnits="userSpaceOnUse" color-interpolation-filters="sRGB">
            <feFlood flood-opacity="0" result="BackgroundImageFix" />
            <feBlend mode="normal" in="SourceGraphic" in2="BackgroundImageFix" result="shape" />
            <feGaussianBlur stdDeviation="1" result="effect1_foregroundBlur_164_980" />
        </filter>
        <filter id="filter2_f_164_980" x="950.711" y="242.793" width="207.026" height="32.2529"
            filterUnits="userSpaceOnUse" color-interpolation-filters="sRGB">
            <feFlood flood-opacity="0" result="BackgroundImageFix" />
            <feBlend mode="normal" in="SourceGraphic" in2="BackgroundImageFix" result="shape" />
            <feGaussianBlur stdDeviation="1" result="effect1_foregroundBlur_164_980" />
        </filter>
        <filter id="filter3_f_164_980" x="1297.03" y="211.408" width="48.9216" height="158.042"
            filterUnits="userSpaceOnUse" color-interpolation-filters="sRGB">
            <feFlood flood-opacity="0" result="BackgroundImageFix" />
            <feBlend mode="normal" in="SourceGraphic" in2="BackgroundImageFix" result="shape" />
            <feGaussianBlur stdDeviation="1" result="effect1_foregroundBlur_164_980" />
        </filter>
        <filter id="filter4_f_164_980" x="441.953" y="925.843" width="206.69" height="32.2148"
            filterUnits="userSpaceOnUse" color-interpolation-filters="sRGB">
            <feFlood flood-opacity="0" result="BackgroundImageFix" />
            <feBlend mode="normal" in="SourceGraphic" in2="BackgroundImageFix" result="shape" />
            <feGaussianBlur stdDeviation="1" result="effect1_foregroundBlur_164_980" />
        </filter>
        <filter id="filter5_f_164_980" x="978.769" y="985.86" width="246.154" height="40.6272"
            filterUnits="userSpaceOnUse" color-interpolation-filters="sRGB">
            <feFlood flood-opacity="0" result="BackgroundImageFix" />
            <feBlend mode="normal" in="SourceGraphic" in2="BackgroundImageFix" result="shape" />
            <feGaussianBlur stdDeviation="1" result="effect1_foregroundBlur_164_980" />
        </filter>
        <filter id="filter6_f_164_980" x="373.43" y="174.799" width="248.139" height="40.3157"
            filterUnits="userSpaceOnUse" color-interpolation-filters="sRGB">
            <feFlood flood-opacity="0" result="BackgroundImageFix" />
            <feBlend mode="normal" in="SourceGraphic" in2="BackgroundImageFix" result="shape" />
            <feGaussianBlur stdDeviation="1" result="effect1_foregroundBlur_164_980" />
        </filter>
        <filter id="filter7_f_164_980" x="1393.41" y="735.49" width="60.0891" height="170.36"
            filterUnits="userSpaceOnUse" color-interpolation-filters="sRGB">
            <feFlood flood-opacity="0" result="BackgroundImageFix" />
            <feBlend mode="normal" in="SourceGraphic" in2="BackgroundImageFix" result="shape" />
            <feGaussianBlur stdDeviation="1" result="effect1_foregroundBlur_164_980" />
        </filter>
        <linearGradient id="paint0_linear_164_980" x1="252.252" y1="537.377" x2="310.798"
            y2="526.416" gradientUnits="userSpaceOnUse">
            <stop stop-color="#2C2D32" />
            <stop offset="1" stop-color="#1C1C20" stop-opacity="0" />
            <stop offset="1" stop-color="#1C1C20" stop-opacity="0" />
        </linearGradient>
        <linearGradient id="paint1_linear_164_980" x1="176.503" y1="776.941" x2="238.435"
            y2="728.191" gradientUnits="userSpaceOnUse">
            <stop stop-color="#2C2D32" />
            <stop offset="1" stop-color="#1C1C20" stop-opacity="0" />
            <stop offset="1" stop-color="#1C1C20" stop-opacity="0" />
        </linearGradient>
        <linearGradient id="paint2_linear_164_980" x1="1087.69" y1="273.046" x2="1085.15"
            y2="226.345" gradientUnits="userSpaceOnUse">
            <stop stop-color="#2C2D32" />
            <stop offset="1" stop-color="#1C1C20" stop-opacity="0" />
            <stop offset="1" stop-color="#1C1C20" stop-opacity="0" />
        </linearGradient>
        <linearGradient id="paint3_linear_164_980" x1="1346.61" y1="294.069" x2="1300.64"
            y2="312.609" gradientUnits="userSpaceOnUse">
            <stop stop-color="#2C2D32" />
            <stop offset="1" stop-color="#1C1C20" stop-opacity="0" />
            <stop offset="1" stop-color="#1C1C20" stop-opacity="0" />
        </linearGradient>
        <linearGradient id="paint4_linear_164_980" x1="532.689" y1="920.353" x2="530.528"
            y2="972.21" gradientUnits="userSpaceOnUse">
            <stop stop-color="#2C2D32" />
            <stop offset="1" stop-color="#1C1C20" stop-opacity="0" />
            <stop offset="1" stop-color="#1C1C20" stop-opacity="0" />
        </linearGradient>
        <linearGradient id="paint5_linear_164_980" x1="1086.75" y1="977.99" x2="1083.69" y2="1045.5"
            gradientUnits="userSpaceOnUse">
            <stop stop-color="#2C2D32" />
            <stop offset="1" stop-color="#1C1C20" stop-opacity="0" />
            <stop offset="1" stop-color="#1C1C20" stop-opacity="0" />
        </linearGradient>
        <linearGradient id="paint6_linear_164_980" x1="537.744" y1="213.114" x2="534.258"
            y2="153.112" gradientUnits="userSpaceOnUse">
            <stop stop-color="#2C2D32" />
            <stop offset="1" stop-color="#1C1C20" stop-opacity="0" />
            <stop offset="1" stop-color="#1C1C20" stop-opacity="0" />
        </linearGradient>
        <linearGradient id="paint7_linear_164_980" x1="1466" y1="822.371" x2="1388.16" y2="822.533"
            gradientUnits="userSpaceOnUse">
            <stop stop-color="#2C2D32" />
            <stop offset="1" stop-color="#1C1C20" stop-opacity="0" />
            <stop offset="1" stop-color="#1C1C20" stop-opacity="0" />
        </linearGradient>
        <linearGradient id="paint8_linear_164_980" x1="1517.58" y1="435.028" x2="1259.04"
            y2="494.75" gradientUnits="userSpaceOnUse">
            <stop stop-color="#7D0FC5" stop-opacity="0" />
            <stop offset="0.536458" stop-color="#880CD9" />
            <stop offset="1" stop-color="#7D0FC5" stop-opacity="0" />
        </linearGradient>
        <linearGradient id="paint9_linear_164_980" x1="1132.15" y1="931.946" x2="1242.89"
            y2="1047.23" gradientUnits="userSpaceOnUse">
            <stop stop-color="#F52685" stop-opacity="0" />
            <stop offset="0.424496" stop-color="#F52685" />
            <stop offset="1" stop-color="#F52685" stop-opacity="0" />
        </linearGradient>
        <linearGradient id="paint10_linear_164_980" x1="369.065" y1="170.732" x2="470.782"
            y2="272.69" gradientUnits="userSpaceOnUse">
            <stop stop-color="#3BC9DB" stop-opacity="0" />
            <stop offset="0.494098" stop-color="#52EDFF" />
            <stop offset="1" stop-color="#3BC9DB" stop-opacity="0" />
        </linearGradient>
        <linearGradient id="paint11_linear_164_980" x1="97.3576" y1="764.021" x2="341.947"
            y2="710.884" gradientUnits="userSpaceOnUse">
            <stop offset="0.138085" stop-color="#0673F2" stop-opacity="0" />
            <stop offset="0.627299" stop-color="#0673F2" />
            <stop offset="1" stop-color="#0673F2" stop-opacity="0" />
        </linearGradient>
        <clipPath id="clip0_164_980">
            <rect width="1600" height="1200" fill="white" />
        </clipPath>
    </defs>
</svg>
    