<svg width="30" height="16" viewBox="0 0 30 16" fill="none" xmlns="http://www.w3.org/2000/svg">
    <path
        d="M14.9567 15.9998C19.6335 12.0055 26.2032 8.12206 29.811 6.72404C29.2542 6.36899 28.3857 5.8586 27.4058 5.30383C22.7513 6.835 17.3173 10.2302 12.4624 14.0692C13.2864 14.6905 14.155 15.3341 14.9567 15.9998V15.9998Z"
        fill="white" />
    <path
        d="M12.8211 5.14896C12.1307 4.8161 11.3736 4.50543 10.7945 4.23914C9.03517 5.10458 6.74133 6.41383 3.84619 8.47758C4.46976 8.81044 5.13787 9.20987 5.85052 9.60931C8.07755 7.96719 10.3269 6.41383 12.8211 5.14896V5.14896Z"
        fill="white" />
    <path
        d="M16.9473 3.24031C16.101 2.7743 13.1613 1.68695 11.1347 1.22095C10.5334 1.44286 9.68718 1.77572 9.10815 2.01982C9.84307 2.21953 12.5823 2.95183 14.9207 4.12794C15.522 3.83946 16.3683 3.48441 16.9473 3.24031V3.24031Z"
        fill="white" />
    <path
        d="M7.02621 2.95203C4.42058 4.15033 1.68132 5.79245 0.189209 6.74665C0.723698 6.99075 1.25818 7.19047 1.9931 7.54552C5.28912 5.32644 7.87248 3.9728 8.89691 3.52899C8.16199 3.2627 7.47162 3.08517 7.02621 2.95203V2.95203Z"
        fill="white" />
    <path
        d="M18.9444 2.55206C19.5457 2.35235 20.236 2.17482 20.8373 1.99729C19.1003 1.265 16.9178 0.48832 14.958 0.00012207C14.6462 0.0888852 13.7108 0.332984 13.065 0.532701C13.7331 0.732418 15.9379 1.24281 18.9444 2.55206ZM7.96509 10.8958C8.67774 11.3174 9.43492 11.8944 10.1698 12.3826C15.0471 8.61015 19.8575 5.70316 25.1355 4.06104C24.4006 3.68379 23.7548 3.35093 22.9308 2.9515C19.7684 3.75037 14.3567 5.90287 7.96509 10.8958Z"
        fill="white" />
</svg>
    