<svg width="18" height="24" viewBox="0 0 18 24" fill="none" xmlns="http://www.w3.org/2000/svg">
    <path
        d="M14.6325 0.501378C13.6718 0.48108 12.5297 0.685104 11.2359 1.10501C11.0418 1.172 10.8884 1.27783 10.7502 1.41173C9.43431 2.62751 8.15419 3.91639 6.94418 5.24892L6.85134 5.35006C6.82562 5.37871 6.82249 5.4214 6.84141 5.45448C6.86102 5.48797 6.8993 5.50526 6.93756 5.49691L7.07349 5.46918C9.02351 5.0589 10.9923 4.74395 12.9234 4.53598C13.0505 4.5222 13.1817 4.56505 13.2765 4.65019C13.3713 4.73618 13.4266 4.85885 13.424 4.98627C13.3921 6.8726 13.4605 8.76825 13.6312 10.6213L13.6429 10.742C13.6471 10.7791 13.673 10.8089 13.7108 10.8187C13.7176 10.8204 13.7239 10.8221 13.7324 10.8221C13.7609 10.8225 13.7896 10.8092 13.807 10.7846L13.8783 10.685C14.9663 9.1571 16.1508 7.67177 17.3959 6.26706C17.5353 6.11078 17.572 6.01247 17.5981 5.87062C17.9901 3.40139 17.3851 1.57525 16.8439 1.11329C16.3738 0.71221 15.6918 0.523881 14.6325 0.501487L14.6325 0.501378ZM11.6453 5.50343L11.526 5.51971C9.66291 5.77224 7.77686 6.1221 5.91973 6.55895C5.73564 6.60957 5.61744 6.72732 5.59151 6.75472C4.20164 8.39292 2.88522 10.1172 1.67775 11.884C1.6174 11.9734 1.61146 12.1875 1.61146 12.1875C1.61146 12.1875 1.91439 14.489 2.35742 16.1846C1.25964 19.2917 0.280349 23.3858 0.280349 23.3858C0.272711 23.4124 0.277805 23.4401 0.293591 23.4625C0.310142 23.4849 0.336367 23.4992 0.364884 23.5H0.989827C1.02938 23.5006 1.06384 23.477 1.07769 23.4413L1.1208 23.3254C1.75855 21.6134 2.48547 19.9233 3.28903 18.2761C3.47611 17.8924 3.87088 17.1177 3.87088 17.1177C3.93572 16.992 4.23861 16.4203 4.30684 16.2922L4.31847 16.2694C6.34183 12.5129 8.80842 8.96957 11.647 5.73836L11.725 5.65026C11.749 5.62219 11.754 5.58151 11.7366 5.54911C11.7179 5.51645 11.6816 5.49857 11.6454 5.50342L11.6453 5.50343ZM12.504 6.21147C12.469 6.19853 12.4286 6.2073 12.4046 6.23595L12.3266 6.32568C9.01673 10.0931 6.23501 14.2747 4.05817 18.7541L4.00673 18.8585C3.99018 18.8916 3.99655 18.9315 4.02167 18.9581C4.0389 18.9756 4.06165 18.9855 4.08635 18.9858C4.09738 18.9862 4.11155 18.9841 4.12284 18.9791L4.23224 18.9334C6.09128 18.1754 7.99036 17.5186 9.87661 16.9822C9.98949 16.9499 10.0835 16.8728 10.1369 16.7701C10.9638 15.184 12.8836 12.1139 12.8836 12.1139C12.933 12.0447 12.9217 11.941 12.9217 11.941C12.9217 11.941 12.5845 8.26886 12.5637 6.41034L12.562 6.29288C12.5603 6.25604 12.5384 6.22363 12.5039 6.21127L12.504 6.21147ZM7.59563 18.5437L7.44148 18.5959C6.44212 18.9227 4.96363 19.425 3.63711 20.025C3.56607 20.0578 3.51942 20.149 3.51942 20.149C3.49472 20.2049 3.46476 20.2747 3.4299 20.3529L3.42481 20.3627C3.27622 20.6956 3.07001 21.1965 2.98221 21.4003L2.91424 21.5618C2.90363 21.5874 2.90999 21.616 2.93079 21.6353C2.94309 21.6468 2.95726 21.6526 2.97551 21.6532C2.98485 21.6532 2.99554 21.6516 3.00539 21.6465L3.16618 21.5715C3.52906 21.4016 3.98905 21.1443 4.47077 20.919L4.48732 20.9106C5.40334 20.4829 6.43716 20.0003 7.06002 19.7082C7.06002 19.7078 7.16029 19.655 7.21088 19.5565L7.67669 18.6363C7.68899 18.6123 7.68543 18.5835 7.6682 18.5629C7.64928 18.5429 7.62118 18.5349 7.59529 18.5434L7.59563 18.5437Z"
        fill="white" />
</svg>
    