<svg width="22" height="20" viewBox="0 0 22 20" fill="none" xmlns="http://www.w3.org/2000/svg">
    <path fill-rule="evenodd" clip-rule="evenodd"
        d="M18.1014 0C18.2102 0.00371315 18.3084 0.0107818 18.3944 0.0215295C18.6174 0.049327 18.5835 0.249377 18.5332 0.548677C17.2869 7.98055 16.7352 15.9875 21.1276 19.8157C21.1737 19.8582 21.2376 19.9473 21.2161 19.9803C21.1948 20.0134 21.0655 19.9956 21.0125 19.9922C18.8502 19.8579 10.1302 16.3911 10.5004 1.51409C10.5063 1.27567 10.5381 1.16664 10.8911 1.06368C12.0715 0.719533 15.8029 0.0512516 17.6876 0H18.1014ZM4.16655 7.49231C4.37233 7.34711 6.70553 6.19755 8.85055 5.43056C9.28006 5.29385 9.27731 5.73821 9.2978 5.85489C11.302 17.2738 16.2003 18.7108 17.5779 19.8401C17.7632 19.9632 17.5259 20.0091 17.2909 19.9976C7.38682 20.0289 4.40458 10.9205 3.85632 7.9344C3.80575 7.65898 3.96077 7.63743 4.16655 7.49231ZM0.997778 14.7358C1.50542 14.1148 2.98264 12.8686 3.59748 12.4608C3.78391 12.3373 3.91887 12.6225 4.08364 13.0112C4.74773 14.4351 5.73748 15.9334 6.71056 16.9195C8.65542 18.8905 10.7825 19.6429 10.8906 19.731C11.0564 19.8663 11.055 19.9736 10.7371 19.9853C4.00774 20.2353 1.25752 17.0516 0.7982 15.2075C0.748583 15.0083 0.792275 14.9872 0.997778 14.7358Z"
        fill="#F8F9FA" />
</svg>
    