<?xml version="1.0" standalone="no"?>
<!DOCTYPE svg PUBLIC "-//W3C//DTD SVG 20010904//EN"
 "http://www.w3.org/TR/2001/REC-SVG-20010904/DTD/svg10.dtd">
<svg version="1.0" xmlns="http://www.w3.org/2000/svg"
 width="1504.000000pt" height="1504.000000pt" viewBox="0 0 1504.000000 1504.000000"
 preserveAspectRatio="xMidYMid meet">
<metadata>
Created by potrace 1.11, written by Peter Selinger 2001-2013
</metadata>
<g transform="translate(0.000000,1504.000000) scale(0.100000,-0.100000)"
fill="#000000" stroke="none">
<path d="M3270 12224 c-36 -8 -74 -17 -85 -20 -11 -3 -26 -6 -32 -6 -7 -1 -13
-5 -13 -10 0 -4 -7 -8 -15 -8 -29 0 -183 -82 -203 -108 -7 -9 -14 -15 -15 -12
-2 5 -49 -35 -106 -90 -35 -33 -112 -142 -145 -204 -45 -86 -82 -202 -92 -296
-2 -25 -6 -57 -8 -72 -2 -16 1 -28 6 -28 5 0 5 -8 0 -17 -4 -10 -7 -27 -5 -38
1 -11 5 -40 7 -65 8 -85 27 -148 79 -270 5 -14 10 -28 9 -32 -1 -5 3 -8 8 -8
6 0 10 -7 10 -15 0 -8 5 -15 10 -15 6 0 10 -6 10 -12 0 -14 88 -127 131 -168
55 -54 118 -100 197 -143 45 -25 82 -43 82 -40 0 3 6 1 13 -5 7 -6 24 -13 37
-15 14 -3 36 -10 50 -15 78 -30 187 -33 1215 -33 1048 0 1133 2 1200 24 11 3
31 8 45 11 14 2 39 10 55 17 17 7 32 13 35 13 19 4 115 56 162 88 70 47 171
145 220 213 49 68 103 177 123 250 9 33 19 67 22 75 3 8 6 29 7 45 1 17 4 35
7 40 13 23 0 233 -19 313 -65 261 -247 482 -488 593 -38 17 -76 32 -84 34 -17
3 -95 24 -125 33 -11 4 -519 7 -1130 8 -947 2 -1120 0 -1175 -12z"/>
<path d="M9479 12236 c-2 -2 -23 -6 -47 -10 -50 -6 -117 -24 -141 -36 -9 -4
-41 -18 -71 -31 -78 -33 -176 -99 -240 -161 -57 -56 -100 -104 -100 -113 0 -3
-8 -14 -17 -25 -25 -27 -114 -205 -102 -205 1 0 -3 -10 -10 -23 -7 -13 -14
-33 -17 -45 -22 -113 -26 -155 -26 -237 1 -52 3 -106 7 -120 8 -36 18 -93 18
-107 0 -7 4 -13 7 -13 4 0 10 -15 14 -32 6 -33 71 -172 91 -195 31 -37 35 -43
30 -43 -6 0 12 -22 78 -90 49 -51 104 -100 112 -100 3 0 14 -8 25 -17 25 -24
134 -79 215 -109 24 -8 31 -10 67 -17 15 -3 31 -8 35 -10 24 -15 256 -18 1183
-18 970 0 1072 2 1145 18 17 3 37 7 45 8 26 3 153 51 190 71 85 47 156 99 219
163 38 37 70 72 72 77 2 5 26 42 52 82 27 40 49 81 50 92 1 11 4 20 8 20 7 0
45 110 54 155 22 123 27 259 10 335 -3 14 -7 37 -10 53 -16 88 -67 204 -133
304 -28 44 -124 148 -182 197 -36 31 -210 131 -210 121 0 -2 -19 5 -43 15 -23
10 -56 21 -72 24 -17 3 -52 10 -80 15 -47 9 -2216 16 -2226 7z"/>
<path d="M2516 9703 c-1 -2 -20 -5 -42 -7 -44 -5 -131 -23 -154 -33 -8 -3 -17
-7 -20 -8 -49 -17 -154 -68 -158 -77 -2 -5 -8 -8 -14 -8 -30 0 -200 -161 -257
-243 -73 -107 -137 -272 -147 -381 -10 -105 -11 -176 -2 -176 5 0 4 -8 -1 -19
-6 -10 -8 -21 -5 -23 3 -3 9 -27 13 -54 5 -27 12 -59 15 -71 3 -13 8 -32 11
-44 17 -77 125 -262 191 -326 18 -17 30 -34 26 -37 -3 -3 -1 -6 4 -6 5 0 25
-14 44 -31 107 -93 265 -172 390 -194 19 -4 53 -10 75 -14 52 -9 3949 -6 3995
3 146 30 238 64 337 126 191 120 346 340 388 550 3 14 8 39 11 55 11 55 10
229 -1 285 -6 30 -12 57 -12 60 -7 48 -82 234 -102 250 -3 3 -13 17 -21 31
-30 53 -153 189 -170 189 -5 0 -10 4 -12 8 -6 15 -111 83 -173 112 -69 32
-141 57 -185 65 -16 3 -45 8 -62 12 -30 6 -3956 12 -3962 6z"/>
<path d="M8738 9689 c-99 -19 -202 -54 -239 -80 -14 -10 -29 -16 -33 -12 -3 3
-6 1 -6 -5 0 -7 -6 -12 -13 -12 -7 0 -23 -9 -35 -20 -12 -11 -25 -20 -31 -20
-9 0 -141 -126 -176 -170 -55 -68 -164 -284 -150 -298 2 -2 0 -14 -6 -25 -11
-19 -21 -78 -22 -124 -1 -13 -3 -23 -6 -23 -7 0 -5 -59 3 -165 6 -72 9 -89 18
-115 3 -8 11 -35 18 -60 12 -43 68 -170 79 -180 3 -3 12 -17 20 -32 8 -15 22
-37 33 -47 10 -11 18 -22 18 -25 0 -27 243 -226 276 -226 8 0 14 -3 14 -8 0
-16 202 -82 266 -86 16 -2 34 -5 40 -7 13 -7 3724 -3 3749 4 11 3 49 14 85 23
59 15 194 74 245 106 36 23 119 92 157 131 68 68 164 212 173 259 3 12 8 24
12 27 5 3 10 13 11 21 2 8 12 40 21 71 10 31 17 70 17 87 -1 18 2 32 5 32 10
0 9 212 -1 256 -5 21 -11 50 -13 64 -17 88 -86 237 -152 325 -41 55 -176 185
-192 185 -7 0 -13 4 -13 8 0 5 -19 18 -42 31 -24 12 -50 26 -58 31 -52 32
-192 78 -256 84 -27 3 -49 6 -49 7 0 1 -829 2 -1842 3 -1663 1 -1850 0 -1925
-15z"/>
<path d="M6000 7103 c0 -5 -12 -8 -26 -8 -42 2 -147 -18 -214 -41 -130 -45
-241 -115 -333 -208 -117 -120 -172 -208 -218 -350 -19 -57 -22 -71 -36 -146
-16 -90 -2 -301 24 -370 4 -8 7 -17 8 -20 19 -75 86 -207 140 -275 165 -208
389 -328 638 -341 51 -3 98 -7 105 -9 6 -3 12 0 12 6 0 6 7 6 20 -1 14 -8 20
-8 20 0 0 8 6 8 20 0 14 -8 20 -8 20 0 0 8 6 8 20 0 11 -6 20 -7 20 -3 0 4 36
6 80 3 44 -3 80 -1 80 3 0 4 9 3 20 -3 11 -6 20 -7 20 -3 0 4 36 6 80 3 44 -3
80 -1 80 3 0 4 9 3 20 -3 14 -8 20 -8 20 0 0 8 6 8 20 0 14 -8 20 -8 20 0 0 8
6 8 20 0 11 -6 20 -7 20 -3 0 4 36 6 80 3 44 -3 80 -1 80 3 0 4 9 3 20 -3 11
-6 20 -7 20 -3 0 4 45 6 100 3 55 -3 100 -1 100 3 0 4 9 3 20 -3 11 -6 20 -7
20 -2 0 4 27 5 60 2 33 -3 60 -2 60 2 0 5 9 4 20 -2 11 -6 20 -7 20 -2 0 4 27
5 60 2 33 -3 60 -2 60 2 0 5 9 4 20 -2 11 -6 20 -7 20 -2 0 4 27 5 60 2 33 -3
60 -2 60 2 0 5 9 4 20 -2 11 -6 20 -7 20 -3 0 4 45 6 100 3 55 -3 100 -1 100
3 0 4 9 3 20 -3 11 -6 20 -7 20 -3 0 4 36 6 80 3 44 -3 80 -1 80 3 0 4 9 3 20
-3 14 -8 20 -8 20 0 0 8 6 8 20 0 14 -8 20 -8 20 0 0 8 6 8 20 0 11 -6 20 -7
20 -3 0 4 36 6 80 3 44 -3 80 -1 80 3 0 4 9 3 20 -3 11 -6 20 -7 20 -3 0 4 36
6 80 3 44 -3 80 -1 80 3 0 4 9 3 20 -3 14 -8 20 -8 20 0 0 8 6 8 20 0 14 -8
20 -8 20 0 0 8 6 8 20 0 11 -6 20 -7 20 -3 0 4 36 6 80 3 44 -3 80 -1 80 3 0
4 9 3 20 -3 11 -6 20 -7 20 -3 0 4 62 8 138 9 75 0 157 4 182 8 102 15 242 73
343 140 73 49 187 162 224 222 61 99 83 137 83 144 0 5 5 21 12 37 6 15 11 31
10 36 -1 4 2 7 8 7 5 0 7 6 4 14 -3 8 0 17 5 21 6 3 9 11 6 16 -4 5 -3 9 2 9
4 0 9 10 9 23 1 12 5 49 9 82 16 124 9 230 -24 355 -19 74 -80 210 -94 210 -6
0 -8 3 -4 6 10 10 -61 100 -141 180 -54 54 -164 134 -186 134 -9 0 -16 4 -16
8 0 26 -218 90 -332 98 -46 3 -89 7 -95 9 -7 3 -13 0 -13 -6 0 -6 -5 -7 -11
-4 -16 11 -69 12 -69 2 0 -4 -5 -5 -11 -2 -16 11 -69 12 -69 2 0 -4 -5 -5 -11
-2 -15 10 -69 12 -69 3 0 -4 -7 -5 -16 -1 -24 9 -254 9 -254 0 0 -5 -5 -5 -12
-1 -16 10 -228 11 -228 1 0 -5 -5 -5 -12 -1 -16 10 -198 11 -198 1 0 -5 -5 -5
-11 -2 -16 11 -69 12 -69 2 0 -4 -5 -5 -11 -2 -16 11 -69 12 -69 2 0 -4 -5 -5
-11 -2 -16 11 -69 12 -69 2 0 -4 -5 -5 -11 -2 -15 10 -99 11 -99 2 0 -5 -5 -5
-12 -1 -16 10 -228 11 -228 1 0 -5 -5 -5 -12 -1 -16 10 -68 11 -68 1 0 -5 -5
-5 -12 -1 -16 10 -228 11 -228 1 0 -5 -5 -5 -12 -1 -16 10 -68 11 -68 1 0 -5
-5 -5 -12 -1 -16 10 -228 11 -228 1 0 -5 -5 -5 -12 -1 -16 10 -68 11 -68 1 0
-5 -5 -5 -12 -1 -16 10 -228 11 -228 1 0 -5 -5 -5 -12 -1 -16 10 -68 11 -68 1
0 -5 -5 -5 -12 -1 -16 10 -228 11 -228 1 0 -5 -5 -5 -12 -1 -16 10 -68 11 -68
1 0 -4 -9 -3 -20 3 -11 6 -20 7 -20 3z"/>
<path d="M1657 7094 c-1 -1 -24 -4 -52 -7 -145 -17 -333 -96 -435 -183 -52
-45 -146 -146 -174 -189 -46 -69 -88 -145 -80 -145 3 0 -1 -11 -9 -24 -9 -13
-18 -35 -21 -48 -2 -12 -9 -35 -15 -50 -6 -15 -14 -49 -18 -75 -9 -56 -8 -287
1 -320 3 -13 8 -31 10 -41 10 -44 28 -106 36 -121 4 -9 22 -45 40 -81 59 -120
174 -251 284 -324 46 -30 192 -108 198 -105 2 1 23 -4 48 -11 54 -15 74 -19
120 -27 48 -8 2171 -8 2240 1 120 14 293 88 399 171 86 66 211 205 211 234 0
6 3 11 8 11 13 0 81 156 98 225 35 137 37 354 4 440 -5 14 -7 25 -4 25 4 0 2
6 -3 13 -6 6 -13 24 -17 40 -31 129 -177 327 -311 422 -66 46 -175 108 -175
98 0 -3 -6 -1 -12 4 -17 13 -97 38 -173 54 -46 10 -303 13 -1128 13 -588 1
-1069 1 -1070 0z"/>
<path d="M11257 7094 c-1 -1 -24 -4 -52 -7 -27 -3 -61 -8 -75 -11 -14 -3 -34
-8 -45 -10 -33 -7 -111 -35 -141 -51 -16 -8 -33 -15 -37 -15 -4 0 -13 -5 -20
-10 -7 -6 -39 -28 -72 -49 -66 -42 -141 -111 -196 -181 -42 -52 -112 -170
-101 -170 4 0 2 -4 -4 -8 -10 -6 -48 -108 -47 -122 1 -3 -3 -12 -7 -21 -22
-40 -34 -284 -18 -374 39 -228 179 -446 371 -577 68 -46 191 -105 238 -114 19
-4 41 -10 49 -14 8 -5 40 -12 70 -16 72 -10 2193 -10 2245 0 22 4 47 9 55 10
59 9 117 30 214 78 201 99 354 272 426 479 12 35 25 71 28 79 3 8 6 24 7 35 0
11 4 26 9 33 13 22 13 232 -1 307 -18 98 -38 157 -85 250 -63 127 -153 232
-268 313 -36 26 -68 50 -71 55 -3 5 -9 8 -13 7 -3 0 -28 9 -54 21 -85 38 -196
71 -262 78 -20 2 -2141 7 -2143 5z"/>
<path d="M1016 4563 c-1 -1 -56 -3 -121 -4 -66 -1 -149 -8 -185 -16 -36 -8
-74 -16 -85 -18 -11 -3 -29 -9 -40 -14 -11 -5 -40 -17 -65 -27 -80 -32 -208
-125 -280 -201 -164 -175 -242 -382 -235 -621 4 -120 5 -132 20 -192 5 -19 9
-38 9 -42 1 -3 4 -10 9 -14 4 -4 7 -14 7 -22 0 -18 81 -186 92 -190 5 -2 8 -8
8 -13 0 -21 132 -162 195 -207 28 -20 52 -39 55 -42 22 -24 205 -102 265 -114
17 -3 48 -10 70 -15 46 -12 2323 -10 2367 2 15 4 40 12 55 18 16 6 29 10 31 9
7 -5 132 45 132 52 0 4 9 8 20 8 11 0 20 5 20 10 0 6 5 10 11 10 21 0 135 87
196 150 96 98 190 267 217 391 20 86 25 120 21 138 -2 11 -1 23 3 25 14 8 -2
189 -23 271 -23 91 -96 256 -125 285 -3 3 -23 27 -44 54 -51 63 -136 145 -158
152 -10 3 -18 10 -18 15 0 5 -6 9 -14 9 -8 0 -16 4 -18 9 -4 10 -159 89 -185
95 -10 1 -25 6 -33 9 -35 13 -111 27 -176 32 -61 6 -1993 13 -1998 8z"/>
<path d="M6597 4564 c-1 -1 -25 -5 -54 -9 -115 -14 -251 -69 -365 -146 -61
-41 -208 -182 -208 -199 0 -5 -6 -15 -13 -22 -35 -35 -118 -215 -132 -285 -15
-79 -18 -101 -19 -140 0 -23 -4 -39 -8 -37 -7 5 1 -56 8 -65 2 -2 -1 -12 -7
-22 -5 -11 -6 -19 -2 -19 5 0 9 -15 9 -32 1 -18 5 -46 8 -63 4 -16 9 -41 12
-55 33 -162 170 -372 309 -475 22 -17 42 -33 45 -36 13 -15 143 -81 196 -100
152 -53 170 -54 1145 -53 848 2 984 4 1005 17 5 2 28 8 51 12 24 4 45 11 49
16 3 5 12 9 19 9 34 0 192 85 258 140 53 43 163 160 150 160 -4 0 1 6 10 13
34 26 128 226 143 305 2 12 7 34 10 50 8 36 9 257 2 307 -42 262 -222 507
-468 636 -25 13 -47 23 -50 24 -3 0 -27 9 -55 19 -76 28 -78 28 -101 32 -12 1
-39 6 -60 10 -33 6 -1880 14 -1887 8z"/>
<path d="M12020 4560 c0 -3 -15 -7 -33 -8 -86 -6 -272 -71 -322 -112 -8 -7
-15 -9 -15 -4 0 5 -4 4 -8 -2 -4 -6 -23 -21 -43 -35 -80 -53 -239 -225 -239
-257 0 -6 -3 -12 -7 -14 -10 -4 -53 -91 -53 -107 0 -6 -5 -11 -12 -11 -6 0 -9
-3 -6 -6 4 -3 0 -20 -7 -38 -8 -18 -16 -44 -19 -57 -3 -13 -8 -35 -11 -49 -15
-64 -21 -237 -10 -295 24 -128 31 -153 66 -235 23 -54 73 -144 94 -167 5 -6
21 -26 35 -44 23 -30 56 -63 120 -120 59 -52 242 -154 254 -141 4 3 6 0 6 -7
0 -7 4 -9 10 -6 5 3 18 1 28 -4 11 -6 30 -12 43 -15 13 -3 47 -9 74 -15 55
-11 2297 -10 2351 1 136 29 274 89 373 163 66 50 211 210 211 234 0 6 4 11 8
11 12 0 85 158 98 215 36 149 41 320 14 430 -6 28 -13 55 -14 60 -1 6 -5 16
-9 23 -5 6 -6 12 -3 12 11 0 -65 154 -105 214 -53 79 -138 166 -216 222 -34
24 -64 44 -67 44 -4 0 -23 11 -44 23 -31 20 -122 56 -157 63 -5 1 -28 7 -50
12 -22 6 -69 14 -105 17 -87 9 -2116 9 -2129 0 -6 -3 -11 -3 -11 2 0 4 -20 8
-45 8 -25 0 -45 -2 -45 -5z"/>
</g>
</svg>
