<svg viewBox="0 0 376.07 235.96" xmlns="http://www.w3.org/2000/svg"><rect fill="#4cc9f0" height="44.02" rx="22.01" width="93.53" x="63.93"/><rect fill="#4cc9f0" height="44.02" rx="22.01" width="93.53" x="217.69"/><rect fill="#4361ee" height="44.02" rx="22.01" width="137.82" x="42.89" y="63.35"/><rect fill="#4361ee" height="44.02" rx="22.01" transform="matrix(-1 0 0 -1 532.83 170.71)" width="131.83" x="200.5" y="63.35"/><g fill="#f72585"><rect height="44.02" rx="22.01" width="95.32" y="191.95"/><rect height="44.02" rx="22.01" transform="matrix(-1 0 0 -1 656.82 427.91)" width="95.32" x="280.75" y="191.95"/><rect height="44.02" rx="22.01" width="85.78" x="145.01" y="191.81"/></g><rect fill="#7209b7" height="44.02" rx="22.01" width="93.42" x="21" y="128.61"/><rect fill="#7209b7" height="44.02" rx="22.01" transform="matrix(-1 0 0 -1 615.02 301.23)" width="93.42" x="260.8" y="128.61"/><rect fill="#7209b7" height="44.02" rx="22.01" width="117.53" x="129.13" y="128.46"/></svg>