<svg fill="none" height="137" viewBox="0 0 115 137" width="115" xmlns="http://www.w3.org/2000/svg" xmlns:xlink="http://www.w3.org/1999/xlink"><filter id="a" color-interpolation-filters="sRGB" filterUnits="userSpaceOnUse" height="136.42" width="114.118" x="0" y=".066667"><feFlood flood-opacity="0" result="BackgroundImageFix"/><feColorMatrix in="SourceAlpha" result="hardAlpha" type="matrix" values="0 0 0 0 0 0 0 0 0 0 0 0 0 0 0 0 0 0 127 0"/><feOffset dy="6.06667"/><feGaussianBlur stdDeviation="12.5"/><feColorMatrix type="matrix" values="0 0 0 0 0.116667 0 0 0 0 0.105 0 0 0 0 0.105 0 0 0 1 0"/><feBlend in2="BackgroundImageFix" mode="normal" result="effect1_dropShadow_4124_22818"/><feBlend in="SourceGraphic" in2="effect1_dropShadow_4124_22818" mode="normal" result="shape"/></filter><linearGradient id="b" gradientUnits="userSpaceOnUse" x1="34.0602" x2="69.6039" y1="50.3621" y2="105.42"><stop offset="0" stop-color="#fff"/><stop offset=".0666667" stop-color="#fff"/><stop offset=".133333" stop-color="#fefefe"/><stop offset=".2" stop-color="#fdfdfd"/><stop offset=".266667" stop-color="#fbfbfb"/><stop offset=".333333" stop-color="#f8f8f9"/><stop offset=".4" stop-color="#f5f5f7"/><stop offset=".466667" stop-color="#f2f2f4"/><stop offset=".533333" stop-color="#eeeef1"/><stop offset=".6" stop-color="#ebebee"/><stop offset=".666667" stop-color="#e8e8ec"/><stop offset=".733333" stop-color="#e5e5ea"/><stop offset=".8" stop-color="#e3e3e8"/><stop offset=".866667" stop-color="#e2e2e7"/><stop offset=".933333" stop-color="#e1e1e6"/><stop offset="1" stop-color="#e1e1e6"/></linearGradient><g filter="url(#a)"><path d="m83.7749 56.8088h-5.3432v-16.2038c0-11.8828-9.6177-21.605-21.3727-21.605-11.7549 0-21.3727 9.7222-21.3727 21.605v16.2038h-5.3431c-2.6716 0-5.3432 2.7006-5.3432 5.4012v37.809c0 2.7 2.6716 5.401 5.3432 5.401h53.4317c2.6716 0 5.3432-2.701 5.3432-5.401v-37.809c0-2.7006-2.6716-5.4012-5.3432-5.4012zm-16.0295 0h-21.3727v-16.2038c0-5.9414 4.8088-10.8025 10.6863-10.8025s10.6864 4.8611 10.6864 10.8025z" fill="url(#b)"/></g><g fill="#19181d"><path d="m45.1513 87.2679h-5.514c-1.3066 0-2.3658 1.0477-2.3658 2.3402s1.0592 2.3402 2.3658 2.3402h5.514c1.3066 0 2.3658-1.0477 2.3658-2.3402s-1.0592-2.3402-2.3658-2.3402z"/><path d="m69.8139 91.9473h5.5141c1.3065 0 2.3657-1.0478 2.3657-2.3402 0-1.2925-1.0592-2.3403-2.3657-2.3403h-5.5141c-1.3066 0-2.3658 1.0478-2.3658 2.3403 0 1.2924 1.0592 2.3402 2.3658 2.3402z"/><path d="m59.7122 87.252h-4.4886c-1.3066 0-2.3658 1.0477-2.3658 2.3402s1.0592 2.3402 2.3658 2.3402h4.4886c1.3066 0 2.3658-1.0477 2.3658-2.3402s-1.0592-2.3402-2.3658-2.3402z"/><path d="m67.671 85.213h5.3098c1.3066 0 2.3658-1.0478 2.3658-2.3403 0-1.2924-1.0592-2.3402-2.3658-2.3402h-5.3098c-1.3066 0-2.3658 1.0478-2.3658 2.3402 0 1.2925 1.0592 2.3403 2.3658 2.3403z"/><path d="m47.2041 80.5322h-5.3099c-1.3065 0-2.3657 1.0478-2.3657 2.3403 0 1.2924 1.0592 2.3402 2.3657 2.3402h5.3099c1.3066 0 2.3658-1.0478 2.3658-2.3402 0-1.2925-1.0592-2.3403-2.3658-2.3403z"/><path d="m61.417 80.5173h-7.9014c-1.3065 0-2.3657 1.0478-2.3657 2.3402 0 1.2925 1.0592 2.3403 2.3657 2.3403h7.9014c1.3066 0 2.3658-1.0478 2.3658-2.3403 0-1.2924-1.0592-2.3402-2.3658-2.3402z"/><path d="m54.3279 73.5943h-10.0823c-1.3066 0-2.3658 1.0477-2.3658 2.3402s1.0592 2.3402 2.3658 2.3402h10.0823c1.3066 0 2.3658-1.0477 2.3658-2.3402s-1.0592-2.3402-2.3658-2.3402z"/><path d="m61.1871 78.2737h9.4384c1.3066 0 2.3658-1.0477 2.3658-2.3402s-1.0592-2.3402-2.3658-2.3402h-9.4384c-1.3066 0-2.3658 1.0477-2.3658 2.3402s1.0592 2.3402 2.3658 2.3402z"/><path d="m68.357 66.8586h-5.3217c-1.3066 0-2.3658 1.0478-2.3658 2.3403 0 1.2924 1.0592 2.3402 2.3658 2.3402h5.3217c1.3066 0 2.3658-1.0478 2.3658-2.3402 0-1.2925-1.0592-2.3403-2.3658-2.3403z"/><path d="m51.8286 66.8586h-5.3217c-1.3066 0-2.3658 1.0478-2.3658 2.3403 0 1.2924 1.0592 2.3402 2.3658 2.3402h5.3217c1.3065 0 2.3657-1.0478 2.3657-2.3402 0-1.2925-1.0592-2.3403-2.3657-2.3403z"/></g></svg>