<svg width="52" height="52" viewBox="0 0 52 52" fill="none" xmlns="http://www.w3.org/2000/svg">
<path d="M15.7974 45.1188L4.33352 47.6668L6.88152 36.203C5.20351 33.0643 4.32816 29.5592 4.33352 26.0002C4.33352 14.0337 14.0337 4.3335 26.0002 4.3335C37.9667 4.3335 47.6669 14.0337 47.6669 26.0002C47.6669 37.9667 37.9667 47.6668 26.0002 47.6668C22.4411 47.6722 18.936 46.7968 15.7974 45.1188V45.1188ZM16.4257 40.5407L17.8405 41.299C20.3507 42.6405 23.154 43.3394 26.0002 43.3335C29.4284 43.3335 32.7796 42.3169 35.6301 40.4123C38.4805 38.5077 40.7022 35.8006 42.0141 32.6333C43.326 29.4661 43.6693 25.9809 43.0005 22.6186C42.3317 19.2563 40.6808 16.1678 38.2567 13.7436C35.8326 11.3195 32.7441 9.6687 29.3818 8.99989C26.0194 8.33107 22.5343 8.67433 19.367 9.98625C16.1998 11.2982 13.4927 13.5198 11.588 16.3703C9.68344 19.2207 8.66685 22.572 8.66685 26.0002C8.66685 28.8905 9.37102 31.6725 10.7035 34.1598L11.4597 35.5747L10.0405 41.9598L16.4257 40.5407V40.5407Z" fill="#52EDFF"/>
<path d="M17 26H21V35H17V26ZM31 22H35V35H31V22ZM24 16H28V35H24V16Z" fill="#52EDFF"/>
</svg>
