<svg width="80" height="80" viewBox="0 0 80 80" fill="none" xmlns="http://www.w3.org/2000/svg">
<g clip-path="url(#clip0_104_2)">
<rect y="-5.63877" width="20.0881" height="101.145" fill="#F12980"/>
<rect x="20.0881" y="-5.63877" width="19.7357" height="101.145" fill="#7209B7"/>
<rect x="39.8242" y="-5.63867" width="20.0881" height="101.145" fill="#4361EE"/>
<rect x="59.9119" y="-5.63877" width="20.0881" height="101.145" fill="#4CC9F0"/>
<path d="M32.0167 28.59H24.4355C22.5744 28.59 21.0657 27.0812 21.0657 25.2202C21.0657 23.359 22.5744 21.8503 24.4355 21.8503H32.0167C33.8778 21.8503 35.3865 23.359 35.3865 25.2202C35.3865 27.0812 33.8778 28.59 32.0167 28.59Z" fill="white"/>
<path d="M55.5616 28.59H47.9804C46.1193 28.59 44.6106 27.0813 44.6106 25.2202C44.6106 23.3591 46.1193 21.8503 47.9804 21.8503H55.5616C57.4227 21.8503 58.9315 23.3591 58.9315 25.2202C58.9315 27.0813 57.4227 28.59 55.5616 28.59Z" fill="white"/>
<path d="M35.5774 38.2899H21.2138C19.3527 38.2899 17.844 36.7812 17.844 34.9201C17.844 33.059 19.3527 31.5502 21.2138 31.5502H35.5774C37.4386 31.5502 38.9473 33.059 38.9473 34.9201C38.9473 36.7812 37.4386 38.2899 35.5774 38.2899Z" fill="white"/>
<path d="M45.3476 38.2899H58.7931C60.6542 38.2899 62.1629 36.7812 62.1629 34.9201C62.1629 33.059 60.6542 31.5502 58.7931 31.5502H45.3476C43.4865 31.5502 41.9778 33.059 41.9778 34.9201C41.9778 36.7812 43.4865 38.2899 45.3476 38.2899Z" fill="white"/>
<path d="M22.504 57.9807H14.6476C12.7866 57.9807 11.2778 56.472 11.2778 54.6109C11.2778 52.7498 12.7866 51.241 14.6476 51.241H22.504C24.3651 51.241 25.8738 52.7498 25.8738 54.6109C25.8738 56.472 24.3651 57.9807 22.504 57.9807Z" fill="white"/>
<path d="M57.6357 57.9808H65.4921C67.3532 57.9808 68.8619 56.4721 68.8619 54.611C68.8619 52.7499 67.3532 51.2411 65.4921 51.2411H57.6357C55.7746 51.2411 54.2659 52.7499 54.2659 54.611C54.2659 56.4721 55.7746 57.9808 57.6357 57.9808Z" fill="white"/>
<path d="M43.2453 57.9591H36.8505C34.9894 57.9591 33.4807 56.4504 33.4807 54.5893C33.4807 52.7282 34.9894 51.2194 36.8505 51.2194H43.2453C45.1064 51.2194 46.6151 52.7282 46.6151 54.5893C46.6151 56.4504 45.1064 57.9591 43.2453 57.9591Z" fill="white"/>
<path d="M25.4272 48.282H17.8632C16.0021 48.282 14.4934 46.7733 14.4934 44.9122C14.4934 43.0511 16.0021 41.5423 17.8632 41.5423H25.4272C27.2884 41.5423 28.7971 43.0511 28.7971 44.9122C28.7971 46.7733 27.2884 48.282 25.4272 48.282Z" fill="white"/>
<path d="M54.5808 48.282H62.1448C64.0059 48.282 65.5146 46.7733 65.5146 44.9122C65.5146 43.0511 64.0059 41.5423 62.1448 41.5423H54.5808C52.7197 41.5423 51.2109 43.0511 51.2109 44.9122C51.2109 46.7733 52.7197 48.282 54.5808 48.282Z" fill="white"/>
<path d="M45.6762 48.2605H34.4198C32.5588 48.2605 31.05 46.7517 31.05 44.8906C31.05 43.0295 32.5588 41.5208 34.4198 41.5208H45.6762C47.5373 41.5208 49.0461 43.0295 49.0461 44.8906C49.0461 46.7517 47.5373 48.2605 45.6762 48.2605Z" fill="white"/>
</g>
<defs>
<clipPath id="clip0_104_2">
<rect width="80" height="80" fill="white"/>
</clipPath>
</defs>
</svg>
