<svg width="48" height="38" viewBox="0 0 48 38" fill="none" xmlns="http://www.w3.org/2000/svg">
<path d="M40.634 3.73976C37.5221 2.31143 34.238 1.29293 30.864 0.709761C30.8332 0.703766 30.8013 0.707703 30.7729 0.721003C30.7445 0.734303 30.7211 0.756278 30.706 0.78376C30.286 1.53376 29.818 2.51176 29.49 3.28376C25.8528 2.73133 22.1531 2.73133 18.516 3.28376C18.1509 2.42836 17.739 1.59376 17.282 0.78376C17.2662 0.756894 17.2427 0.735439 17.2145 0.722227C17.1863 0.709016 17.1547 0.704669 17.124 0.709761C13.7497 1.29172 10.4654 2.31027 7.35398 3.73976C7.32764 3.75081 7.30531 3.76965 7.28998 3.79376C1.06598 13.0918 -0.640015 22.1598 0.197985 31.1138C0.20002 31.136 0.206569 31.1576 0.217229 31.1772C0.22789 31.1968 0.242439 31.214 0.259985 31.2278C3.88317 33.9122 7.9362 35.9613 12.246 37.2878C12.2764 37.2966 12.3087 37.2959 12.3387 37.2859C12.3687 37.2759 12.395 37.257 12.414 37.2318C13.338 35.9718 14.162 34.6418 14.866 33.2438C14.8758 33.2247 14.8815 33.2037 14.8826 33.1823C14.8838 33.1608 14.8804 33.1394 14.8726 33.1193C14.8649 33.0993 14.853 33.0811 14.8377 33.0661C14.8224 33.051 14.8041 33.0393 14.784 33.0318C13.4908 32.5369 12.2389 31.9404 11.04 31.2478C11.018 31.2351 10.9995 31.2171 10.9861 31.1955C10.9728 31.1739 10.965 31.1494 10.9634 31.1241C10.9618 31.0987 10.9665 31.0734 10.9771 31.0503C10.9876 31.0272 11.0038 31.0071 11.024 30.9918C11.2765 30.8029 11.5245 30.6082 11.768 30.4078C11.7893 30.3905 11.815 30.3795 11.8421 30.3759C11.8693 30.3724 11.897 30.3765 11.922 30.3878C19.778 33.9738 28.282 33.9738 36.046 30.3878C36.0712 30.3761 36.0993 30.3718 36.1269 30.3753C36.1544 30.3789 36.1805 30.3901 36.202 30.4078C36.442 30.6038 36.694 30.8038 36.948 30.9918C36.968 31.0069 36.984 31.0266 36.9946 31.0493C37.0052 31.072 37.0102 31.0969 37.009 31.1219C37.0078 31.147 37.0006 31.1713 36.9878 31.1929C36.9751 31.2145 36.9573 31.2326 36.936 31.2458C35.7398 31.9449 34.4867 32.5417 33.19 33.0298C33.1698 33.0375 33.1515 33.0494 33.1362 33.0647C33.1209 33.08 33.109 33.0983 33.1012 33.1185C33.0935 33.1387 33.0901 33.1602 33.0913 33.1818C33.0924 33.2034 33.0981 33.2245 33.108 33.2438C33.828 34.6398 34.652 35.9678 35.558 37.2298C35.5766 37.2555 35.6028 37.2747 35.633 37.2848C35.6631 37.2948 35.6956 37.2952 35.726 37.2858C40.0429 35.9634 44.1026 33.914 47.73 31.2258C47.7476 31.2133 47.7625 31.1972 47.7735 31.1786C47.7845 31.16 47.7915 31.1392 47.794 31.1178C48.794 20.7638 46.118 11.7698 40.696 3.79776C40.6833 3.77088 40.6613 3.74954 40.634 3.73776V3.73976ZM16.04 25.6598C13.674 25.6598 11.726 23.4898 11.726 20.8218C11.726 18.1558 13.638 15.9838 16.04 15.9838C18.46 15.9838 20.392 18.1758 20.354 20.8238C20.354 23.4898 18.442 25.6598 16.04 25.6598ZM31.99 25.6598C29.624 25.6598 27.676 23.4898 27.676 20.8218C27.676 18.1558 29.586 15.9838 31.99 15.9838C34.41 15.9838 36.342 18.1758 36.304 20.8238C36.304 23.4898 34.412 25.6598 31.99 25.6598Z" fill="white"/>
</svg>
