<svg width="54" height="61" fill="none" xmlns="http://www.w3.org/2000/svg"><path fill-rule="evenodd" clip-rule="evenodd" d="M35.687 36.25L53.86 60.76H.145V.743L28.39.744c.987 0 1.887.038 2.715.112 9.396.742 16.788 8.598 16.788 18.18 0 7.956-5.098 14.722-12.206 17.213z" fill="#157EFF"/><path fill-rule="evenodd" clip-rule="evenodd" d="M35.128 60.761H.145V.743l53.343 60.018h-18.36z" fill="#157EFF"/><path fill-rule="evenodd" clip-rule="evenodd" d="M53.86 60.762H.146l26.67-41.913L53.86 60.762z" fill="#00BDFF"/><path fill-rule="evenodd" clip-rule="evenodd" d="M.145 35.474V.744h14.991l22.4 34.727-37.391.003z" fill="#1560FA"/><path fill-rule="evenodd" clip-rule="evenodd" d="M16.236 35.48L26.814 18.85 37.541 35.48H16.236z" fill="#00EFE9"/><path fill-rule="evenodd" clip-rule="evenodd" d="M53.859 60.762H33.902l-7.088-41.913L53.86 60.762z" fill="#157EFF" fill-opacity=".5"/></svg>